<svg xmlns="http://www.w3.org/2000/svg" xmlns:xlink="http://www.w3.org/1999/xlink" version="1.1" id="Layer_1" x="0px" y="0px" viewBox="0 0 12 12" enable-background="new 0 0 12 12" xml:space="preserve">
<g>
	<g>
		<defs>
			<path id="SVGID_1_" d="M2.2 5.6c0 2 1.5 3.6 3.4 3.8v1.7H3.9v0.8h4.2v-0.8H6.4V9.3c1.9-0.2 3.4-1.8 3.4-3.8H8.9 c0 1.6-1.3 2.9-2.9 2.9S3.1 7.2 3.1 5.6H2.2z"/>
		</defs>
		<clipPath id="SVGID_2_">
			<use xlink:href="#SVGID_1_" overflow="visible"/>
		</clipPath>
		<rect x="1.6" y="5" clip-path="url(#SVGID_2_)" width="8.7" height="7.5"/>
	</g>
	<g>
		<defs>
			<path id="SVGID_3_" d="M3.9 2.2C3.9 1 4.8 0.1 6 0.1c1.2 0 2.1 0.9 2.1 2.1v3.4c0 1.2-0.9 2.1-2.1 2.1c-1.2 0-2.1-0.9-2.1-2.1 V2.2z"/>
		</defs>
		<clipPath id="SVGID_4_">
			<use xlink:href="#SVGID_3_" overflow="visible"/>
		</clipPath>
		<rect x="3.3" y="-0.5" clip-path="url(#SVGID_4_)" width="5.4" height="8.8"/>
	</g>
</g>
</svg>
